<?xml version="1.0" standalone="no"?><!-- Generator: Gravit.io --><svg xmlns="http://www.w3.org/2000/svg" xmlns:xlink="http://www.w3.org/1999/xlink" style="isolation:isolate" viewBox="0 0 578.082 157.759" width="578.082" height="157.759"><path d="M 66.553 0 L 527.92 1.403 C 555.69 1.487 578.166 24.101 578.082 51.871 L 577.913 107.597 C 577.828 135.366 555.214 157.843 527.445 157.759 L 66.078 156.357 C 38.308 156.272 15.831 133.658 15.915 105.889 L 16.085 50.162 C 16.169 22.393 38.783 -0.084 66.553 0 Z" style="stroke:none;fill:#E4EEF2;stroke-miterlimit:10;"/><path d=" M 43.549 139.296 Q 39.684 151.702 0 143.296 Q 32.444 133.108 28.743 117.296 C 25.041 101.483 47.414 126.89 43.549 139.296 Z " fill="rgb(228,238,242)"/><g transform="matrix(1,0,0,1,51.999,22.63)"><text transform="matrix(1,0,0,1,0,44.531)" style="font-family:&quot;Roboto&quot;;font-weight:700;font-size:48px;font-style:normal;fill:#606060;stroke:none;">I'm Matt, tech + design</text><text transform="matrix(1,0,0,1,0,100.781)" style="font-family:&quot;Roboto&quot;;font-weight:700;font-size:48px;font-style:normal;fill:#606060;stroke:none;">enthusiast.</text></g></svg>