<?xml version="1.0" standalone="no"?><!-- Generator: Gravit.io --><svg xmlns="http://www.w3.org/2000/svg" xmlns:xlink="http://www.w3.org/1999/xlink" style="isolation:isolate" viewBox="0 0 322.002 90.12" width="322.002" height="90.12"><g><path d="M 54.101 0 L 284.226 0.7 C 305.138 0.763 322.065 17.793 322.002 38.706 L 321.96 52.343 C 321.897 73.256 304.867 90.183 283.954 90.119 L 53.829 89.42 C 32.916 89.356 15.989 72.326 16.053 51.413 L 16.094 37.777 C 16.158 16.864 33.188 -0.063 54.101 0 Z" style="stroke:none;fill:#E4EEF2;stroke-miterlimit:10;"/><path d=" M 43.549 81.371 Q 39.684 93.777 0 85.371 Q 32.444 75.184 28.743 59.371 C 25.041 43.559 47.414 68.965 43.549 81.371 Z " fill="rgb(228,238,242)"/></g><g transform="matrix(1,0,0,1,51.999,16.935)"><text transform="matrix(1,0,0,1,0,44.531)" style="font-family:&quot;Roboto&quot;;font-weight:400;font-size:48px;font-style:normal;fill:#606060;stroke:none;">Hello User!</text></g></svg>