<?xml version="1.0" standalone="no"?><!-- Generator: Gravit.io --><svg xmlns="http://www.w3.org/2000/svg" xmlns:xlink="http://www.w3.org/1999/xlink" style="isolation:isolate" viewBox="0 0 658.025 91.03" width="658.025" height="91.03"><g><path d="M 40.64 0 L 592.61 1.608 C 614.954 1.673 633.037 19.866 632.966 42.21 L 632.939 50.66 C 632.869 73.005 614.67 91.092 592.326 91.027 L 40.357 89.42 C 18.012 89.355 -0.071 71.161 0 48.817 L 0.027 40.367 C 0.098 18.023 18.296 -0.065 40.64 0 Z" style="stroke:none;fill:#E4EEF2;stroke-miterlimit:10;"/><path d=" M 612.57 83.635 Q 616.604 96.041 658.025 87.635 Q 624.161 77.447 628.025 61.635 C 631.888 45.822 608.535 71.229 612.57 83.635 Z " fill="rgb(228,238,242)"/></g><g transform="matrix(1,0,0,1,40.025,15.39)"><text transform="matrix(1,0,0,1,0,44.531)" style="font-family:&quot;Roboto&quot;;font-weight:400;font-size:48px;font-style:normal;fill:#606060;stroke:none;">I'm good, maybe next time</text></g></svg>