<svg xmlns="http://www.w3.org/2000/svg" viewBox="0 0 536 536"><defs><style>.a{fill:#abe2ef;}.b,.e,.h{fill:#1a1a1a;}.b{opacity:0.28;}.c,.n,.o{fill:#333;}.d{fill:#ccc;}.f{fill:gray;}.g{fill:#b3b3b3;}.h,.o{stroke:#1a1a1a;}.h,.m,.o{stroke-miterlimit:10;stroke-width:3px;}.i,.p{fill:#666;}.i{opacity:0.3;}.j,.k,.l{font-size:8.05px;}.j,.k{fill:#f2f2f2;}.j{font-family:FuturaBT-Book, Futura Bk BT;}.k,.l{font-family:MyriadPro-Regular, Myriad Pro;}.l{fill:#cf412d;}.m{stroke:#4d4d4d;}.m,.n{opacity:0.24;}.p{opacity:0.2;}.q{fill:#fff;opacity:0.15;}</style></defs><title>fujifilmcamera</title><rect class="a" width="536" height="536"/><polygon class="b" points="106 360 346 536 536 536 536 338 418 173 106 360"/><rect class="c" x="106.05" y="171.51" width="313.17" height="192.61" rx="4" ry="4"/><path class="d" d="M110,171.51H415.22a4,4,0,0,1,4,4v41.58a0,0,0,0,1,0,0H106a0,0,0,0,1,0,0V175.51A4,4,0,0,1,110,171.51Z"/><polygon class="d" points="217.3 217.58 227.1 172.25 246.46 142.84 315.56 142.84 335.41 172.25 346.19 217.58 217.3 217.58"/><path class="d" d="M106,350.89H419.22a0,0,0,0,1,0,0v9.23a4,4,0,0,1-4,4H110a4,4,0,0,1-4-4v-9.23A0,0,0,0,1,106,350.89Z"/><rect class="e" x="106.05" y="217.09" width="55.87" height="133.8"/><path class="c" d="M178.89,154.6h45.46a3,3,0,0,1,3,3v13.91a0,0,0,0,1,0,0H175.89a0,0,0,0,1,0,0V157.6A3,3,0,0,1,178.89,154.6Z"/><path class="c" d="M345,154.6H392a3,3,0,0,1,3,3v13.91a0,0,0,0,1,0,0H342a0,0,0,0,1,0,0V157.6A3,3,0,0,1,345,154.6Z"/><path class="c" d="M114.93,161.22h31.49a3,3,0,0,1,3,3v7.29a0,0,0,0,1,0,0H111.93a0,0,0,0,1,0,0v-7.29A3,3,0,0,1,114.93,161.22Z"/><path class="c" d="M106.78,200.92v25.73h-8.9c-6,0-10.95-5.76-10.95-12.87s4.9-12.86,10.95-12.86Z"/><path class="c" d="M419.22,200.92v25.73h8.9c6.05,0,10.95-5.76,10.95-12.87s-4.9-12.86-10.95-12.86Z"/><rect class="f" x="155.3" y="159.02" width="13.23" height="12.5"/><path class="c" d="M153.36,162h17.11a1,1,0,0,1,1,1v8.56a0,0,0,0,1,0,0H152.36a0,0,0,0,1,0,0V163A1,1,0,0,1,153.36,162Z"/><polygon class="g" points="217.79 217.09 345.7 217.09 335.41 171.51 226.61 171.51 217.79 217.09"/><path class="e" d="M314.89,178.72h-.18c-.06.27-.12.53-.19.79-.67,2.78-1.33,5.57-2,8.35a2.7,2.7,0,0,1-.14.4.72.72,0,0,1-.62.45H310q-1.21-5-2.42-10h-.19v9.55a1.48,1.48,0,0,1,0,.21c0,.17-.08.23-.25.24H306c0-.05,0-.09,0-.13V177.3a2.81,2.81,0,0,1,0-.29.55.55,0,0,1,.53-.57h2.82c.65,3.1,1.31,6.19,2,9.29h0a1,1,0,0,0,.05-.16c.28-1.23.56-2.45.83-3.67.35-1.54.7-3.07,1-4.6l0-.1a.93.93,0,0,1,.92-.76h3.56c0,.06,0,.12,0,.17v11.22c0,.1,0,.21,0,.31a.57.57,0,0,1-.54.57h-2.32Z"/><path class="e" d="M257.79,176.42v9.26a5.09,5.09,0,0,0,.06.87,1.28,1.28,0,0,0,.75,1,3,3,0,0,0,2.25,0,1.29,1.29,0,0,0,.86-1.1,5.29,5.29,0,0,0,.06-.8c0-2.1,0-4.2,0-6.31v-2.24a2.09,2.09,0,0,1,0-.25.46.46,0,0,1,.39-.46l.24,0h2.36a.71.71,0,0,1,0,.14v9a3.61,3.61,0,0,1-.39,1.71,3,3,0,0,1-1.41,1.33,5.27,5.27,0,0,1-1.27.37,10.42,10.42,0,0,1-2.23.16,7.81,7.81,0,0,1-2.48-.41,3.6,3.6,0,0,1-1.36-.82,2.84,2.84,0,0,1-.79-1.59,6.11,6.11,0,0,1-.06-.86q0-4.17,0-8.36a1.84,1.84,0,0,1,0-.33.43.43,0,0,1,.33-.34l.21,0h2.44Z"/><path class="e" d="M282,188.71v-5.6h-2v0l.11-.1c.59-.49,1.17-1,1.76-1.45a.44.44,0,0,0,.18-.38q0-1.65,0-3.3a3.29,3.29,0,0,1,.07-.63.82.82,0,0,1,.55-.65,4,4,0,0,1,.58-.12h6.65a.5.5,0,0,1,0,.12v1a.53.53,0,0,1,0,.13.14.14,0,0,1-.12.11h-3.72l-.32,0a.64.64,0,0,0-.59.64,1.21,1.21,0,0,0,0,.19v3.08h4.51c0,.05,0,.08,0,.12,0,.35,0,.7,0,1.06,0,0,0,0,0,.06s-.05.16-.16.17a.75.75,0,0,1-.15,0h-4.2c0,.07,0,.13,0,.19V188a1.66,1.66,0,0,1,0,.32.46.46,0,0,1-.35.4,1.2,1.2,0,0,1-.33.05H282Z"/><path class="e" d="M248.37,183.1V188a2,2,0,0,1,0,.35.48.48,0,0,1-.34.37,1.13,1.13,0,0,1-.32.05h-2.41V178a3.17,3.17,0,0,1,.06-.75.85.85,0,0,1,.59-.67,3.25,3.25,0,0,1,.54-.12h6.67c0,.05,0,.09,0,.13v1c0,.2,0,.23-.22.23h-3.63l-.35,0a.6.6,0,0,0-.54.54,1.15,1.15,0,0,0,0,.26v3s0,.07,0,.13h4.5a.6.6,0,0,1,0,.12v1.07c0,.17-.05.22-.21.22h-4.32Z"/><path class="e" d="M300.49,176.44v9.79a2.88,2.88,0,0,0,0,.41.75.75,0,0,0,.57.69,1.59,1.59,0,0,0,.43.06c.94,0,1.88,0,2.82,0h.18a.81.81,0,0,1,0,.15v.91a.62.62,0,0,1,0,.13.16.16,0,0,1-.15.13h-5a3,3,0,0,1-.73-.07,1.36,1.36,0,0,1-1.06-1.29c0-.16,0-.31,0-.47v-9.67c0-.11,0-.23,0-.34a.44.44,0,0,1,.41-.43h2.55Z"/><path class="e" d="M273.27,176.44v.19q0,3.87,0,7.72a8.79,8.79,0,0,1-.13,1.7,3.38,3.38,0,0,1-1.52,2.27,4.41,4.41,0,0,1-1.47.61,8.3,8.3,0,0,1-2,.2c-.53,0-1.07,0-1.61,0-.14,0-.28,0-.42-.06a.13.13,0,0,1-.12-.15c0-.34,0-.68,0-1h.17c.63,0,1.25,0,1.87,0a4.45,4.45,0,0,0,.89-.13,1.75,1.75,0,0,0,1.34-1.66q0-.3,0-.6v-8.22a1.83,1.83,0,0,1,0-.33.5.5,0,0,1,.44-.42h2.52Z"/><path class="e" d="M291.69,188.72V177.18a2.16,2.16,0,0,1,0-.35.44.44,0,0,1,.32-.35,1.26,1.26,0,0,1,.27,0h2.37v11.47c0,.11,0,.22,0,.33a.45.45,0,0,1-.43.46h-2.55Z"/><path class="e" d="M279,183.12v4.78c0,.12,0,.24,0,.36a.46.46,0,0,1-.44.45H276c0-.12-.05-5.22,0-5.58C276.09,183.1,278.71,183.08,279,183.12Z"/><path class="e" d="M276,183v-5.82a1.73,1.73,0,0,1,0-.32.46.46,0,0,1,.35-.38.85.85,0,0,1,.23,0H279c0,.05,0,.1,0,.15,0,1.23,0,2.47,0,3.7a.5.5,0,0,1-.19.41l-2.72,2.23S276,183,276,183Z"/><circle class="h" cx="281.75" cy="283.26" r="93.36"/><circle class="i" cx="282.48" cy="283.26" r="74.25"/><text class="j" transform="matrix(0.63, -0.75, 0.77, 0.64, 218.59, 233.58)">F</text><text class="j" transform="matrix(0.68, -0.69, 0.71, 0.7, 222.1, 229.44)">U</text><text class="j" transform="matrix(0.73, -0.64, 0.66, 0.75, 227.17, 224.45)">J</text><text class="j" transform="matrix(0.77, -0.6, 0.62, 0.79, 230.61, 221.52)">I</text><text class="j" transform="matrix(0.81, -0.55, 0.56, 0.83, 233.34, 219.35)">N</text><text class="j" transform="matrix(0.86, -0.46, 0.48, 0.88, 239.59, 215.17)">O</text><text class="j" transform="translate(246.89 211.31) rotate(-22.88) scale(0.97 1)">N</text><text class="j" transform="translate(253.86 208.5) rotate(-18.9) scale(0.97 1)"> </text><text class="j" transform="translate(257.47 207.3) rotate(-16.21) scale(0.97 1)"> </text><text class="j" transform="matrix(0.95, -0.21, 0.22, 0.98, 261.12, 206.24)">A</text><text class="j" transform="matrix(0.96, -0.14, 0.15, 0.99, 267.34, 204.92)">S</text><text class="j" transform="translate(272.79 204.15) rotate(-4.66) scale(0.97 1)">P</text><text class="j" transform="translate(278.21 203.74) rotate(-0.28) scale(0.97 1)">H</text><text class="j" transform="translate(285.33 203.79) rotate(4.13) scale(0.97 1)">E</text><text class="j" transform="translate(290.86 204.24) rotate(8.02) scale(0.97 1)">R</text><text class="j" transform="matrix(0.95, 0.19, -0.19, 0.98, 296.48, 205.1)">I</text><text class="j" transform="translate(299.92 205.77) rotate(14.87) scale(0.97 1)">C</text><text class="j" transform="matrix(0.92, 0.32, -0.33, 0.94, 306.82, 207.68)">A</text><text class="j" transform="translate(312.8 209.87) rotate(23.32) scale(0.97 1)">L</text><text class="j" transform="matrix(0.87, 0.43, -0.44, 0.9, 317.42, 211.92)"> </text><text class="j" transform="matrix(0.85, 0.47, -0.48, 0.88, 320.81, 213.64)"> </text><text class="j" transform="translate(324.14 215.5) rotate(31.97) scale(0.97 1)">L</text><text class="j" transform="translate(328.4 218.21) rotate(35.64) scale(0.97 1)">E</text><text class="j" transform="translate(332.9 221.46) rotate(40.18) scale(0.97 1)">N</text><text class="j" transform="matrix(0.69, 0.69, -0.7, 0.71, 338.59, 226.39)">S</text><text class="j" transform="matrix(0.64, 0.73, -0.75, 0.66, 342.44, 230.28)">E</text><text class="j" transform="matrix(0.59, 0.77, -0.79, 0.61, 346.09, 234.48)">S</text><text class="j" transform="translate(349.39 238.89) rotate(55.69) scale(0.97 1)"> </text><text class="j" transform="matrix(0.51, 0.83, -0.85, 0.52, 351.52, 242.06)"> </text><text class="j" transform="translate(353.49 245.33) rotate(61.05) scale(0.97 1)"> </text><text class="j" transform="matrix(0.43, 0.87, -0.9, 0.44, 355.3, 248.67)"> </text><text class="j" transform="matrix(0.39, 0.89, -0.92, 0.4, 356.96, 252.12)"> </text><text class="j" transform="matrix(0.35, 0.91, -0.93, 0.36, 358.44, 255.61)"> </text><text class="j" transform="matrix(0.3, 0.93, -0.95, 0.31, 359.77, 259.2)"> </text><text class="j" transform="matrix(0.26, 0.94, -0.96, 0.27, 360.93, 262.84)"> </text><text class="j" transform="translate(361.9 266.5) rotate(77.32) scale(0.97 1)"> </text><text class="j" transform="translate(362.7 270.23) rotate(80.09) scale(0.97 1)"> </text><text class="j" transform="matrix(0.12, 0.97, -0.99, 0.12, 363.32, 273.98)"> </text><text class="j" transform="translate(363.76 277.79) rotate(85.66) scale(0.97 1)"> </text><text class="j" transform="matrix(0.03, 0.97, -1, 0.03, 364.01, 281.59)"> </text><text class="j" transform="matrix(-0.02, 0.97, -1, -0.02, 364.08, 285.39)"> </text><text class="j" transform="translate(363.96 289.19) rotate(94.1) scale(0.97 1)"> </text><text class="j" transform="translate(363.65 292.97) rotate(96.92) scale(0.97 1)"> </text><text class="j" transform="translate(363.15 296.76) rotate(99.76) scale(0.97 1)"> </text><text class="j" transform="matrix(-0.21, 0.95, -0.98, -0.22, 362.47, 300.51)"> </text><text class="k" transform="translate(361.97 302.74) rotate(104.05) scale(0.97 1)"> </text><text class="k" transform="translate(361.57 304.32) rotate(105.26) scale(0.97 1)"> </text><text class="k" transform="translate(361.14 305.9) rotate(106.47) scale(0.97 1)"> </text><text class="k" transform="matrix(-0.3, 0.93, -0.95, -0.3, 360.69, 307.44)"> </text><text class="k" transform="matrix(-0.31, 0.92, -0.95, -0.32, 360.19, 309)"> </text><text class="k" transform="matrix(-0.33, 0.91, -0.94, -0.34, 359.66, 310.54)"> </text><text class="k" transform="translate(359.09 312.1) rotate(110.91) scale(0.97 1)"> </text><text class="k" transform="translate(358.52 313.59) rotate(112.82) scale(0.97 1)"> </text><text class="k" transform="translate(357.89 315.1) rotate(113.61) scale(0.97 1)"> </text><text class="k" transform="translate(357.23 316.61) rotate(114.82) scale(0.97 1)"> </text><text class="k" transform="matrix(-0.43, 0.87, -0.9, -0.44, 356.56, 318.08)"> </text><text class="k" transform="matrix(-0.45, 0.87, -0.89, -0.46, 355.84, 319.55)"> </text><text class="k" transform="translate(355.09 321) rotate(118.42) scale(0.97 1)"> </text><text class="k" transform="matrix(-0.48, 0.85, -0.87, -0.49, 354.32, 322.43)"> </text><text class="k" transform="matrix(-0.5, 0.84, -0.86, -0.51, 353.52, 323.84)"> </text><text class="k" transform="matrix(-0.52, 0.83, -0.85, -0.53, 352.67, 325.26)"> </text><text class="k" transform="matrix(-0.53, 0.81, -0.84, -0.55, 351.8, 326.65)"> </text><text class="k" transform="matrix(-0.55, 0.8, -0.82, -0.57, 350.92, 327.99)"> </text><text class="k" transform="matrix(-0.57, 0.79, -0.81, -0.58, 350, 329.34)"> </text><text class="k" transform="matrix(-0.58, 0.78, -0.8, -0.6, 349.04, 330.66)"> </text><text class="k" transform="matrix(-0.6, 0.77, -0.79, -0.62, 348.05, 331.98)"> </text><text class="k" transform="translate(347.05 333.26) rotate(129.33) scale(0.97 1)"> </text><text class="k" transform="translate(346.03 334.51) rotate(130.53) scale(0.97 1)"> </text><text class="k" transform="matrix(-0.65, 0.73, -0.75, -0.67, 344.96, 335.76)"> </text><text class="k" transform="matrix(-0.66, 0.71, -0.73, -0.68, 343.86, 336.99)"> </text><text class="k" transform="matrix(-0.68, 0.7, -0.72, -0.7, 342.77, 338.17)"> </text><text class="k" transform="matrix(-0.69, 0.68, -0.7, -0.71, 341.63, 339.34)"> </text><text class="k" transform="matrix(-0.71, 0.67, -0.69, -0.73, 340.46, 340.49)"> </text><text class="k" transform="translate(339.28 341.61) rotate(137.77) scale(0.97 1)"> </text><text class="k" transform="translate(338.09 342.71) rotate(139.77) scale(0.97 1)">S</text><text class="k" transform="matrix(-0.78, 0.59, -0.6, -0.8, 335.23, 345.16)">U</text><text class="k" transform="matrix(-0.81, 0.54, -0.56, -0.83, 331.23, 348.16)">P</text><text class="k" transform="translate(327.83 350.44) rotate(149.09) scale(0.97 1)">E</text><text class="k" transform="translate(324.58 352.39) rotate(151.93) scale(0.97 1)">R</text><text class="k" transform="matrix(-0.87, 0.43, -0.44, -0.9, 320.89, 354.33)"> </text><text class="k" transform="translate(319.45 355.05) rotate(155.92) scale(0.97 1)">E</text><text class="k" transform="matrix(-0.91, 0.35, -0.36, -0.93, 316, 356.6)">B</text><text class="k" transform="translate(312.12 358.12) rotate(161.79) scale(0.97 1)">C</text><text class="k" transform="translate(307.84 359.5) rotate(163.93) scale(0.97 1)"> </text><text class="l" transform="matrix(-0.94, 0.23, -0.24, -0.97, 306.29, 359.97)">X</text><text class="l" transform="translate(302.02 361.03) rotate(168.91) scale(0.97 1)">F</text><text class="k" transform="translate(298.34 361.73) rotate(170.79) scale(0.97 1)"> </text><text class="k" transform="translate(296.73 362.01) rotate(172.75) scale(0.97 1)">1</text><text class="k" transform="matrix(-0.97, 0.08, -0.08, -1, 292.82, 362.51)">8</text><text class="k" transform="translate(288.86 362.81) rotate(177.72) scale(0.97 1)">-</text><text class="k" transform="translate(286.52 362.92) rotate(179.91) scale(0.97 1)">5</text><text class="k" transform="matrix(-0.97, -0.05, 0.05, -1, 282.56, 362.93)">5</text><text class="k" transform="translate(278.64 362.79) rotate(-173.72) scale(0.97 1)">m</text><text class="k" transform="matrix(-0.96, -0.18, 0.19, -0.98, 272.25, 362.09)">m</text><text class="k" transform="translate(265.89 360.82) rotate(-166.49) scale(0.97 1)"> </text><text class="k" transform="matrix(-0.94, -0.26, 0.27, -0.96, 264.32, 360.47)">1</text><text class="k" transform="translate(260.5 359.39) rotate(-162.68) scale(0.97 1)">:</text><text class="k" transform="translate(258.97 358.94) rotate(-160.79) scale(0.97 1)">2</text><text class="k" transform="matrix(-0.91, -0.35, 0.36, -0.93, 255.25, 357.62)">.</text><text class="k" transform="translate(253.75 357.07) rotate(-157.05) scale(0.97 1)">8</text><text class="k" transform="translate(250.1 355.51) rotate(-154.91) scale(0.97 1)">-</text><text class="k" transform="matrix(-0.87, -0.45, 0.46, -0.89, 247.98, 354.53)">4</text><text class="k" transform="matrix(-0.85, -0.47, 0.49, -0.87, 244.45, 352.69)"> </text><text class="k" transform="translate(243.04 351.93) rotate(-148.88) scale(0.97 1)">R</text><text class="k" transform="matrix(-0.82, -0.53, 0.55, -0.84, 239.48, 349.76)"> </text><text class="k" transform="matrix(-0.8, -0.56, 0.57, -0.82, 238.13, 348.9)">L</text><text class="k" transform="translate(235.13 346.86) rotate(-141.66) scale(0.97 1)">M</text><text class="k" transform="matrix(-0.73, -0.64, 0.66, -0.75, 230.27, 342.94)"> </text><text class="k" transform="translate(229.03 341.92) rotate(-136.51) scale(0.97 1)">O</text><text class="k" transform="translate(225.18 338.22) rotate(-134.01) scale(0.97 1)">I</text><text class="k" transform="matrix(-0.65, -0.72, 0.74, -0.67, 223.92, 336.93)">S</text><circle class="m" cx="282.48" cy="283.26" r="40.43"/><circle class="n" cx="282.85" cy="284.36" r="23.16"/><rect class="o" x="159.71" y="186.95" width="35.29" height="11.76" rx="2" ry="2"/><path class="p" d="M300.12,245A57.36,57.36,0,0,1,215,295.18c-.07-1.28-.1-2.56-.1-3.84a74.25,74.25,0,0,1,74.25-74.25c1.28,0,2.56,0,3.84.11A57.08,57.08,0,0,1,300.12,245Z"/><circle class="p" cx="314.09" cy="314.87" r="12.5"/><path class="q" d="M402.31,171.51h12.91a4,4,0,0,1,4,4V360.86a4,4,0,0,1-4,4H402.31a0,0,0,0,1,0,0V171.51A0,0,0,0,1,402.31,171.51Z"/><path class="q" d="M106,171.51h13.64a4,4,0,0,1,4,4V360.12a4,4,0,0,1-4,4H106a0,0,0,0,1,0,0V171.51A0,0,0,0,1,106,171.51Z" transform="translate(229.74 535.63) rotate(180)"/></svg>