<svg xmlns="http://www.w3.org/2000/svg" viewBox="0 0 632.91 632.6"><defs><style>.cls-1{fill:#abe2ef;}.cls-2,.cls-5,.cls-8{fill:#1a1a1a;}.cls-2{opacity:0.28;}.cls-14,.cls-15,.cls-3{fill:#333;}.cls-4{fill:#ccc;}.cls-6{fill:gray;}.cls-7{fill:#b3b3b3;}.cls-15,.cls-8{stroke:#1a1a1a;}.cls-13,.cls-15,.cls-8{stroke-miterlimit:10;stroke-width:3px;}.cls-16,.cls-9{fill:#666;}.cls-9{opacity:0.3;}.cls-10,.cls-11,.cls-12{font-size:8.05px;}.cls-10,.cls-11{fill:#f2f2f2;}.cls-10{font-family:FuturaBT-Book, Futura Bk BT;}.cls-11,.cls-12{font-family:MyriadPro-Regular, Myriad Pro;}.cls-12{fill:#cf412d;}.cls-13{stroke:#4d4d4d;}.cls-13,.cls-14{opacity:0.24;}.cls-16{opacity:0.2;}.cls-17{fill:#fff;opacity:0.15;}.cls-18{font-size:80px;font-family:FuturaBT-Heavy, Futura Hv BT;}.cls-19{letter-spacing:-0.04em;}</style></defs><title>Asset 1</title><g id="Layer_2" data-name="Layer 2"><g id="Layer_1-2" data-name="Layer 1"><rect class="cls-1" y="96.6" width="536" height="536"/><polygon class="cls-2" points="106 456.6 346 632.6 536 632.6 536 434.6 418 269.6 106 456.6"/><rect class="cls-3" x="106.05" y="268.11" width="313.17" height="192.61" rx="4" ry="4"/><path class="cls-4" d="M110,268.11H415.22a4,4,0,0,1,4,4v41.58a0,0,0,0,1,0,0H106a0,0,0,0,1,0,0V272.11A4,4,0,0,1,110,268.11Z"/><polygon class="cls-4" points="217.3 314.18 227.1 268.85 246.46 239.44 315.56 239.44 335.41 268.85 346.19 314.18 217.3 314.18"/><path class="cls-4" d="M106,447.49H419.22a0,0,0,0,1,0,0v9.23a4,4,0,0,1-4,4H110a4,4,0,0,1-4-4v-9.23A0,0,0,0,1,106,447.49Z"/><rect class="cls-5" x="106.05" y="313.69" width="55.87" height="133.8"/><path class="cls-3" d="M178.89,251.2h45.46a3,3,0,0,1,3,3v13.91a0,0,0,0,1,0,0H175.89a0,0,0,0,1,0,0V254.2A3,3,0,0,1,178.89,251.2Z"/><path class="cls-3" d="M345,251.2H392a3,3,0,0,1,3,3v13.91a0,0,0,0,1,0,0H342a0,0,0,0,1,0,0V254.2a3,3,0,0,1,3-3Z"/><path class="cls-3" d="M114.93,257.82h31.49a3,3,0,0,1,3,3v7.29a0,0,0,0,1,0,0H111.93a0,0,0,0,1,0,0v-7.29A3,3,0,0,1,114.93,257.82Z"/><path class="cls-3" d="M106.78,297.52v25.73h-8.9c-6,0-10.95-5.76-10.95-12.87s4.9-12.86,10.95-12.86Z"/><path class="cls-3" d="M419.22,297.52v25.73h8.9c6.05,0,10.95-5.76,10.95-12.87s-4.9-12.86-10.95-12.86Z"/><rect class="cls-6" x="155.3" y="255.62" width="13.23" height="12.5"/><path class="cls-3" d="M153.36,258.56h17.11a1,1,0,0,1,1,1v8.56a0,0,0,0,1,0,0H152.36a0,0,0,0,1,0,0v-8.56A1,1,0,0,1,153.36,258.56Z"/><polygon class="cls-7" points="217.79 313.69 345.7 313.69 335.41 268.11 226.61 268.11 217.79 313.69"/><path class="cls-5" d="M314.89,275.32h-.18c-.06.27-.12.53-.19.79-.67,2.78-1.33,5.57-2,8.35a2.7,2.7,0,0,1-.14.4.72.72,0,0,1-.62.45H310q-1.21-5-2.42-10h-.19v9.55a1.48,1.48,0,0,1,0,.21c0,.17-.08.23-.25.24H306c0-.05,0-.09,0-.13V273.9a2.81,2.81,0,0,1,0-.29.55.55,0,0,1,.53-.57h2.82c.65,3.1,1.31,6.19,2,9.29h0a1.42,1.42,0,0,0,.05-.16c.28-1.23.56-2.45.83-3.68.35-1.53.7-3.06,1-4.59l0-.1a.93.93,0,0,1,.92-.76h3.56c0,.07,0,.13,0,.18v11.21c0,.11,0,.22,0,.32a.58.58,0,0,1-.54.57h-2.32Z"/><path class="cls-5" d="M257.79,273v9.26a5.09,5.09,0,0,0,.06.87,1.28,1.28,0,0,0,.75,1,3,3,0,0,0,2.25,0,1.29,1.29,0,0,0,.86-1.1,5.29,5.29,0,0,0,.06-.8c0-2.1,0-4.2,0-6.31v-2.24a2.35,2.35,0,0,1,0-.26.46.46,0,0,1,.39-.45l.24,0h2.36a.71.71,0,0,1,0,.14v9a3.61,3.61,0,0,1-.39,1.71,3,3,0,0,1-1.41,1.33,5.27,5.27,0,0,1-1.27.37,10.42,10.42,0,0,1-2.23.16,7.81,7.81,0,0,1-2.48-.41,3.6,3.6,0,0,1-1.36-.82,2.84,2.84,0,0,1-.79-1.59,6.11,6.11,0,0,1-.06-.86q0-4.17,0-8.36a1.84,1.84,0,0,1,0-.33.42.42,0,0,1,.33-.34l.21,0h2.44Z"/><path class="cls-5" d="M282,285.31v-5.6h-2v0l.11-.1c.59-.49,1.17-1,1.76-1.45a.44.44,0,0,0,.18-.38q0-1.65,0-3.3a3.29,3.29,0,0,1,.07-.63.82.82,0,0,1,.55-.65,4,4,0,0,1,.58-.12h6.65a.69.69,0,0,1,0,.13v1a.53.53,0,0,1,0,.13.15.15,0,0,1-.12.11h-3.72a1.67,1.67,0,0,0-.32,0,.64.64,0,0,0-.59.64,1.21,1.21,0,0,0,0,.19v3.08h4.51s0,.08,0,.12c0,.35,0,.7,0,1.06,0,0,0,0,0,.06s-.05.16-.16.17h-4.35c0,.07,0,.13,0,.19v4.66a1.66,1.66,0,0,1,0,.32.46.46,0,0,1-.35.4,1.2,1.2,0,0,1-.33.05H282Z"/><path class="cls-5" d="M248.37,279.7v4.85a2,2,0,0,1,0,.35.48.48,0,0,1-.34.37,1.13,1.13,0,0,1-.32.05h-2.41V274.58a3.17,3.17,0,0,1,.06-.75.85.85,0,0,1,.59-.67,3.25,3.25,0,0,1,.54-.12h6.67c0,.06,0,.1,0,.14v1c0,.2,0,.23-.22.23h-3.63l-.35,0a.6.6,0,0,0-.54.54,1.15,1.15,0,0,0,0,.26v3s0,.07,0,.13h4.5a.6.6,0,0,1,0,.12v1.07c0,.17-.05.22-.21.22h-4.32Z"/><path class="cls-5" d="M300.49,273v9.79a2.88,2.88,0,0,0,0,.41.75.75,0,0,0,.57.69,1.59,1.59,0,0,0,.43.06h3a.81.81,0,0,1,0,.15v.91a.62.62,0,0,1,0,.13.16.16,0,0,1-.15.13h-5a2.56,2.56,0,0,1-.73-.08,1.34,1.34,0,0,1-1.06-1.29c0-.15,0-.3,0-.46v-9.67c0-.11,0-.23,0-.34a.44.44,0,0,1,.41-.43h.16q1.14,0,2.28,0Z"/><path class="cls-5" d="M273.27,273v.19c0,2.57,0,5.15,0,7.72a8.79,8.79,0,0,1-.13,1.7,3.38,3.38,0,0,1-1.52,2.27,4.41,4.41,0,0,1-1.47.61,8.3,8.3,0,0,1-2,.2c-.53,0-1.07,0-1.61,0l-.42-.06a.14.14,0,0,1-.12-.15c0-.34,0-.68,0-1h.17c.63,0,1.25,0,1.87,0a4.45,4.45,0,0,0,.89-.13,1.75,1.75,0,0,0,1.34-1.66q0-.3,0-.6v-8.22a1.83,1.83,0,0,1,0-.33.49.49,0,0,1,.44-.42h2.52Z"/><path class="cls-5" d="M291.69,285.32V273.78a2.16,2.16,0,0,1,0-.35.44.44,0,0,1,.32-.35,1.26,1.26,0,0,1,.27,0c.76,0,1.53,0,2.29,0h.08v11.48c0,.11,0,.22,0,.33a.45.45,0,0,1-.43.46h-2.55Z"/><path class="cls-5" d="M279,279.72v4.78c0,.12,0,.24,0,.36a.46.46,0,0,1-.44.45H276c0-.12-.05-5.22,0-5.58C276.09,279.7,278.71,279.68,279,279.72Z"/><path class="cls-5" d="M276,279.6v-5.82a1.73,1.73,0,0,1,0-.32.46.46,0,0,1,.35-.38l.23,0H279c0,.05,0,.1,0,.15,0,1.23,0,2.47,0,3.7a.5.5,0,0,1-.19.41l-2.72,2.23S276,279.57,276,279.6Z"/><circle class="cls-8" cx="281.75" cy="379.86" r="93.36"/><circle class="cls-9" cx="282.48" cy="379.86" r="74.25"/><text class="cls-10" transform="matrix(0.63, -0.75, 0.77, 0.64, 218.59, 330.18)">F</text><text class="cls-10" transform="translate(222.1 326.04) rotate(-45.37) scale(0.97 1)">U</text><text class="cls-10" transform="matrix(0.73, -0.64, 0.66, 0.75, 227.17, 321.05)">J</text><text class="cls-10" transform="matrix(0.77, -0.6, 0.62, 0.79, 230.61, 318.12)">I</text><text class="cls-10" transform="matrix(0.81, -0.55, 0.56, 0.83, 233.34, 315.95)">N</text><text class="cls-10" transform="matrix(0.86, -0.46, 0.48, 0.88, 239.59, 311.77)">O</text><text class="cls-10" transform="translate(246.89 307.91) rotate(-22.88) scale(0.97 1)">N</text><text class="cls-10" transform="translate(253.86 305.1) rotate(-18.9) scale(0.97 1)"> </text><text class="cls-10" transform="translate(257.47 303.9) rotate(-16.21) scale(0.97 1)"> </text><text class="cls-10" transform="matrix(0.95, -0.21, 0.22, 0.98, 261.12, 302.84)">A</text><text class="cls-10" transform="translate(267.34 301.52) rotate(-8.49) scale(0.97 1)">S</text><text class="cls-10" transform="translate(272.79 300.76) rotate(-4.66) scale(0.97 1)">P</text><text class="cls-10" transform="translate(278.21 300.34) rotate(-0.28) scale(0.97 1)">H</text><text class="cls-10" transform="matrix(0.97, 0.07, -0.07, 1, 285.33, 300.39)">E</text><text class="cls-10" transform="translate(290.86 300.84) rotate(8.02) scale(0.97 1)">R</text><text class="cls-10" transform="translate(296.48 301.7) rotate(11.21) scale(0.97 1)">I</text><text class="cls-10" transform="matrix(0.94, 0.25, -0.26, 0.97, 299.92, 302.37)">C</text><text class="cls-10" transform="translate(306.82 304.28) rotate(19.48) scale(0.97 1)">A</text><text class="cls-10" transform="translate(312.8 306.47) rotate(23.32) scale(0.97 1)">L</text><text class="cls-10" transform="translate(317.42 308.53) rotate(26.32) scale(0.97 1)"> </text><text class="cls-10" transform="matrix(0.85, 0.47, -0.48, 0.88, 320.82, 310.24)"> </text><text class="cls-10" transform="matrix(0.83, 0.52, -0.53, 0.85, 324.13, 312.1)">L</text><text class="cls-10" transform="matrix(0.79, 0.57, -0.58, 0.81, 328.4, 314.81)">E</text><text class="cls-10" transform="translate(332.9 318.06) rotate(40.18) scale(0.97 1)">N</text><text class="cls-10" transform="translate(338.59 322.99) rotate(44.72) scale(0.97 1)">S</text><text class="cls-10" transform="translate(342.47 326.9) rotate(48.58) scale(0.97 1)">E</text><text class="cls-10" transform="matrix(0.59, 0.77, -0.79, 0.61, 346.09, 331.08)">S</text><text class="cls-10" transform="translate(349.4 335.49) rotate(55.69) scale(0.97 1)"> </text><text class="cls-10" transform="matrix(0.51, 0.83, -0.85, 0.52, 351.52, 338.66)"> </text><text class="cls-10" transform="matrix(0.47, 0.85, -0.88, 0.48, 353.49, 341.93)"> </text><text class="cls-10" transform="translate(355.3 345.27) rotate(63.73) scale(0.97 1)"> </text><text class="cls-10" transform="matrix(0.39, 0.89, -0.92, 0.4, 356.96, 348.72)"> </text><text class="cls-10" transform="matrix(0.35, 0.91, -0.93, 0.36, 358.45, 352.21)"> </text><text class="cls-10" transform="matrix(0.3, 0.93, -0.95, 0.31, 359.77, 355.8)"> </text><text class="cls-10" transform="matrix(0.26, 0.94, -0.96, 0.27, 360.93, 359.43)"> </text><text class="cls-10" transform="matrix(0.21, 0.95, -0.98, 0.22, 361.9, 363.1)"> </text><text class="cls-10" transform="matrix(0.17, 0.96, -0.99, 0.17, 362.7, 366.83)"> </text><text class="cls-10" transform="translate(363.33 370.61) rotate(82.88) scale(0.97 1)"> </text><text class="cls-10" transform="translate(363.76 374.39) rotate(85.66) scale(0.97 1)"> </text><text class="cls-10" transform="matrix(0.03, 0.97, -1, 0.03, 364.01, 378.19)"> </text><text class="cls-10" transform="matrix(-0.02, 0.97, -1, -0.02, 364.08, 381.98)"> </text><text class="cls-10" transform="translate(363.96 385.79) rotate(94.1) scale(0.97 1)"> </text><text class="cls-10" transform="matrix(-0.12, 0.97, -0.99, -0.12, 363.65, 389.57)"> </text><text class="cls-10" transform="translate(363.15 393.36) rotate(99.76) scale(0.97 1)"> </text><text class="cls-10" transform="matrix(-0.21, 0.95, -0.98, -0.22, 362.47, 397.11)"> </text><text class="cls-11" transform="matrix(-0.24, 0.94, -0.97, -0.24, 361.97, 399.34)"> </text><text class="cls-11" transform="translate(361.57 400.92) rotate(105.26) scale(0.97 1)"> </text><text class="cls-11" transform="matrix(-0.28, 0.93, -0.96, -0.28, 361.14, 402.5)"> </text><text class="cls-11" transform="matrix(-0.3, 0.93, -0.95, -0.3, 360.69, 404.04)"> </text><text class="cls-11" transform="translate(360.19 405.6) rotate(108.86) scale(0.97 1)"> </text><text class="cls-11" transform="translate(359.66 407.14) rotate(110.05) scale(0.97 1)"> </text><text class="cls-11" transform="translate(359.09 408.7) rotate(110.91) scale(0.97 1)"> </text><text class="cls-11" transform="translate(358.52 410.19) rotate(112.82) scale(0.97 1)"> </text><text class="cls-11" transform="matrix(-0.39, 0.89, -0.92, -0.4, 357.89, 411.7)"> </text><text class="cls-11" transform="translate(357.23 413.21) rotate(114.82) scale(0.97 1)"> </text><text class="cls-11" transform="translate(356.56 414.68) rotate(116.01) scale(0.97 1)"> </text><text class="cls-11" transform="matrix(-0.45, 0.87, -0.89, -0.46, 355.84, 416.15)"> </text><text class="cls-11" transform="translate(355.09 417.6) rotate(118.42) scale(0.97 1)"> </text><text class="cls-11" transform="translate(354.32 419.03) rotate(119.63) scale(0.97 1)"> </text><text class="cls-11" transform="matrix(-0.5, 0.84, -0.86, -0.51, 353.52, 420.44)"> </text><text class="cls-11" transform="translate(352.67 421.86) rotate(122.05) scale(0.97 1)"> </text><text class="cls-11" transform="matrix(-0.53, 0.81, -0.84, -0.55, 351.8, 423.25)"> </text><text class="cls-11" transform="translate(350.92 424.59) rotate(124.47) scale(0.97 1)"> </text><text class="cls-11" transform="matrix(-0.57, 0.79, -0.81, -0.58, 350, 425.94)"> </text><text class="cls-11" transform="matrix(-0.58, 0.78, -0.8, -0.6, 349.05, 427.26)"> </text><text class="cls-11" transform="translate(348.05 428.58) rotate(128.13) scale(0.97 1)"> </text><text class="cls-11" transform="translate(347.05 429.86) rotate(129.33) scale(0.97 1)"> </text><text class="cls-11" transform="matrix(-0.63, 0.74, -0.76, -0.65, 346.03, 431.11)"> </text><text class="cls-11" transform="matrix(-0.65, 0.73, -0.75, -0.67, 344.96, 432.36)"> </text><text class="cls-11" transform="matrix(-0.66, 0.71, -0.73, -0.68, 343.86, 433.59)"> </text><text class="cls-11" transform="translate(342.77 434.77) rotate(134.16) scale(0.97 1)"> </text><text class="cls-11" transform="matrix(-0.69, 0.68, -0.7, -0.71, 341.63, 435.94)"> </text><text class="cls-11" transform="matrix(-0.71, 0.67, -0.69, -0.73, 340.46, 437.09)"> </text><text class="cls-11" transform="translate(339.28 438.21) rotate(137.77) scale(0.97 1)"> </text><text class="cls-11" transform="translate(338.09 439.31) rotate(139.77) scale(0.97 1)">S</text><text class="cls-11" transform="matrix(-0.78, 0.59, -0.6, -0.8, 335.23, 441.76)">U</text><text class="cls-11" transform="matrix(-0.81, 0.54, -0.56, -0.83, 331.23, 444.76)">P</text><text class="cls-11" transform="translate(327.83 447.04) rotate(149.09) scale(0.97 1)">E</text><text class="cls-11" transform="matrix(-0.86, 0.46, -0.47, -0.88, 324.58, 448.99)">R</text><text class="cls-11" transform="translate(320.89 450.93) rotate(154) scale(0.97 1)"> </text><text class="cls-11" transform="translate(319.45 451.65) rotate(155.92) scale(0.97 1)">E</text><text class="cls-11" transform="matrix(-0.91, 0.35, -0.36, -0.93, 316, 453.2)">B</text><text class="cls-11" transform="translate(312.12 454.72) rotate(161.79) scale(0.97 1)">C</text><text class="cls-11" transform="matrix(-0.94, 0.27, -0.28, -0.96, 307.84, 456.1)"> </text><text class="cls-12" transform="matrix(-0.94, 0.23, -0.24, -0.97, 306.29, 456.57)">X</text><text class="cls-12" transform="translate(302.02 457.63) rotate(168.91) scale(0.97 1)">F</text><text class="cls-11" transform="translate(298.34 458.33) rotate(170.79) scale(0.97 1)"> </text><text class="cls-11" transform="translate(296.73 458.61) rotate(172.75) scale(0.97 1)">1</text><text class="cls-11" transform="translate(292.82 459.11) rotate(175.51) scale(0.97 1)">8</text><text class="cls-11" transform="translate(288.86 459.41) rotate(177.72) scale(0.97 1)">-</text><text class="cls-11" transform="matrix(-0.97, 0, 0, -1, 286.52, 459.52)">5</text><text class="cls-11" transform="translate(282.56 459.53) rotate(-177.32) scale(0.97 1)">5</text><text class="cls-11" transform="translate(278.64 459.39) rotate(-173.72) scale(0.97 1)">m</text><text class="cls-11" transform="translate(272.25 458.69) rotate(-169.27) scale(0.97 1)">m</text><text class="cls-11" transform="matrix(-0.95, -0.23, 0.23, -0.97, 265.89, 457.42)"> </text><text class="cls-11" transform="matrix(-0.94, -0.26, 0.27, -0.96, 264.33, 457.07)">1</text><text class="cls-11" transform="matrix(-0.93, -0.29, 0.3, -0.95, 260.5, 455.99)">:</text><text class="cls-11" transform="translate(258.97 455.54) rotate(-160.79) scale(0.97 1)">2</text><text class="cls-11" transform="translate(255.25 454.22) rotate(-159.04) scale(0.97 1)">.</text><text class="cls-11" transform="translate(253.75 453.67) rotate(-157.05) scale(0.97 1)">8</text><text class="cls-11" transform="matrix(-0.88, -0.41, 0.42, -0.91, 250.1, 452.1)">-</text><text class="cls-11" transform="translate(247.98 451.13) rotate(-152.78) scale(0.97 1)">4</text><text class="cls-11" transform="translate(244.45 449.29) rotate(-150.86) scale(0.97 1)"> </text><text class="cls-11" transform="matrix(-0.83, -0.5, 0.52, -0.86, 243.04, 448.53)">R</text><text class="cls-11" transform="translate(239.48 446.36) rotate(-146.89) scale(0.97 1)"> </text><text class="cls-11" transform="translate(238.1 445.48) rotate(-145.06) scale(0.97 1)">L</text><text class="cls-11" transform="matrix(-0.76, -0.6, 0.62, -0.78, 235.13, 443.46)">M</text><text class="cls-11" transform="translate(230.27 439.54) rotate(-138.93) scale(0.97 1)"> </text><text class="cls-11" transform="translate(229.03 438.52) rotate(-136.51) scale(0.97 1)">O</text><text class="cls-11" transform="matrix(-0.68, -0.7, 0.72, -0.69, 225.19, 434.82)">I</text><text class="cls-11" transform="matrix(-0.65, -0.72, 0.74, -0.67, 223.92, 433.53)">S</text><circle class="cls-13" cx="282.48" cy="379.86" r="40.43"/><circle class="cls-14" cx="282.85" cy="380.96" r="23.16"/><rect class="cls-15" x="159.71" y="283.55" width="35.29" height="11.76" rx="2" ry="2"/><path class="cls-16" d="M300.12,341.63A57.36,57.36,0,0,1,215,391.78c-.07-1.28-.1-2.56-.1-3.84a74.25,74.25,0,0,1,74.25-74.25c1.28,0,2.56,0,3.84.1A57.14,57.14,0,0,1,300.12,341.63Z"/><circle class="cls-16" cx="314.09" cy="411.47" r="12.5"/><path class="cls-17" d="M402.31,268.11h12.91a4,4,0,0,1,4,4V457.46a4,4,0,0,1-4,4H402.31a0,0,0,0,1,0,0V268.11A0,0,0,0,1,402.31,268.11Z"/><path class="cls-17" d="M106,268.11h13.64a4,4,0,0,1,4,4V456.72a4,4,0,0,1-4,4H106a0,0,0,0,1,0,0V268.11A0,0,0,0,1,106,268.11Z" transform="translate(229.74 728.83) rotate(180)"/><text class="cls-18" transform="translate(222 68.6)">I’m Matt</text><text class="cls-18" transform="translate(564.31 96.25) rotate(90)"><tspan class="cls-19">P</tspan><tspan x="41.64" y="0">aterno</tspan></text></g></g></svg>